<svg width="52" height="54" viewBox="0 0 52 54" fill="none" xmlns="http://www.w3.org/2000/svg">
<path fill-rule="evenodd" clip-rule="evenodd" d="M26.2797 0.186157C40.3825 0.186157 51.8138 11.6175 51.8138 25.6582C51.8138 39.761 40.3825 51.1924 26.2797 51.1924C12.239 51.1924 0.807617 39.761 0.807617 25.6582C0.807617 11.6175 12.239 0.186157 26.2797 0.186157ZM17.9547 12.6737C19.3214 12.6737 20.6882 12.6737 21.9929 12.6737C22.7384 12.6737 23.2976 13.2328 23.2976 13.9162C23.2976 21.7442 23.2976 29.5722 23.2976 37.4002C23.2976 38.1457 22.7384 38.7049 21.9929 38.7049C20.6882 38.7049 19.3214 38.7049 17.9547 38.7049C17.2713 38.7049 16.7121 38.1457 16.7121 37.4002C16.7121 29.5722 16.7121 21.7442 16.7121 13.9162C16.7121 13.2328 17.2713 12.6737 17.9547 12.6737ZM30.5664 12.6737C31.9332 12.6737 33.3 12.6737 34.6668 12.6737C35.3502 12.6737 35.9093 13.2328 35.9093 13.9162C35.9093 21.7442 35.9093 29.5722 35.9093 37.4002C35.9093 38.1457 35.3502 38.7049 34.6668 38.7049C33.3 38.7049 31.9332 38.7049 30.5664 38.7049C29.883 38.7049 29.3239 38.1457 29.3239 37.4002C29.3239 29.5722 29.3239 21.7442 29.3239 13.9162C29.3239 13.2328 29.883 12.6737 30.5664 12.6737Z" fill="white"/>
<path d="M0.18808 52.5511C0.185349 52.5745 0.176704 52.5925 0.162143 52.6053C0.147683 52.6179 0.12842 52.6242 0.104354 52.6242C0.0782654 52.6242 0.0573339 52.6149 0.0415595 52.5962C0.0258862 52.5775 0.0180496 52.5525 0.0180496 52.5211V52.4999C0.0180496 52.4793 0.0216898 52.4613 0.0289703 52.4457C0.0363519 52.4302 0.0467671 52.4182 0.0602158 52.4099C0.0736645 52.4015 0.0892367 52.3973 0.106932 52.3973C0.130392 52.3973 0.1492 52.4039 0.163356 52.4171C0.177513 52.4301 0.185754 52.4482 0.18808 52.4714H0.158806C0.156278 52.4538 0.150767 52.441 0.142273 52.4331C0.13388 52.4252 0.1221 52.4213 0.106932 52.4213C0.0883266 52.4213 0.0737151 52.4282 0.0630977 52.4419C0.0525814 52.4557 0.0473233 52.4753 0.0473233 52.5006V52.522C0.0473233 52.546 0.0523286 52.565 0.0623393 52.5792C0.07235 52.5934 0.0863548 52.6004 0.104354 52.6004C0.120533 52.6004 0.13292 52.5968 0.141515 52.5895C0.150211 52.5821 0.155975 52.5693 0.158806 52.5511H0.18808ZM0.302899 52.4823C0.298652 52.4816 0.294051 52.4812 0.289097 52.4812C0.270693 52.4812 0.258205 52.4891 0.251632 52.5047V52.6212H0.223572V52.4571H0.250874L0.251329 52.4761C0.260531 52.4614 0.273575 52.4541 0.290462 52.4541C0.295922 52.4541 0.300068 52.4548 0.302899 52.4562V52.4823ZM0.393905 52.6242C0.371659 52.6242 0.353559 52.617 0.339605 52.6024C0.325651 52.5877 0.318674 52.5682 0.318674 52.5437V52.5386C0.318674 52.5223 0.321758 52.5078 0.327926 52.495C0.334195 52.4822 0.342891 52.4722 0.354014 52.465C0.365238 52.4577 0.377373 52.4541 0.390417 52.4541C0.411753 52.4541 0.428336 52.4611 0.440167 52.4752C0.451998 52.4892 0.457913 52.5093 0.457913 52.5355V52.5472H0.346734C0.347138 52.5634 0.35184 52.5765 0.36084 52.5865C0.36994 52.5964 0.381468 52.6013 0.395422 52.6013C0.405332 52.6013 0.413725 52.5993 0.420601 52.5953C0.427477 52.5912 0.433493 52.5859 0.43865 52.5792L0.45579 52.5925C0.442038 52.6137 0.42141 52.6242 0.393905 52.6242ZM0.390417 52.4771C0.379092 52.4771 0.369587 52.4813 0.361902 52.4896C0.354217 52.4978 0.349464 52.5093 0.347644 52.5241H0.429853V52.522C0.429044 52.5078 0.425201 52.4967 0.418325 52.489C0.411449 52.4811 0.402147 52.4771 0.390417 52.4771ZM0.591844 52.6212C0.590226 52.618 0.588912 52.6122 0.5879 52.6039C0.574856 52.6175 0.559284 52.6242 0.541184 52.6242C0.525005 52.6242 0.511708 52.6197 0.501293 52.6106C0.490979 52.6014 0.485822 52.5898 0.485822 52.5757C0.485822 52.5586 0.492293 52.5454 0.505236 52.536C0.518281 52.5265 0.536583 52.5217 0.560144 52.5217H0.587445V52.5088C0.587445 52.499 0.584513 52.4912 0.578648 52.4855C0.572783 52.4796 0.564138 52.4767 0.552711 52.4767C0.542701 52.4767 0.534308 52.4792 0.527533 52.4843C0.520758 52.4893 0.517371 52.4954 0.517371 52.5026H0.489159C0.489159 52.4944 0.492041 52.4865 0.497804 52.4789C0.503669 52.4713 0.511556 52.4652 0.521466 52.4607C0.531477 52.4563 0.542448 52.4541 0.55438 52.4541C0.573289 52.4541 0.588103 52.4588 0.598821 52.4683C0.60954 52.4777 0.615101 52.4907 0.615506 52.5073V52.5828C0.615506 52.5979 0.617427 52.6099 0.621269 52.6188V52.6212H0.591844ZM0.545279 52.5998C0.554076 52.5998 0.562419 52.5976 0.570306 52.593C0.578193 52.5885 0.583906 52.5825 0.587445 52.5753V52.5416H0.565452C0.531072 52.5416 0.513882 52.5516 0.513882 52.5718C0.513882 52.5806 0.516814 52.5874 0.522679 52.5924C0.528544 52.5974 0.536077 52.5998 0.545279 52.5998ZM0.697563 52.4174V52.4571H0.728202V52.4788H0.697563V52.5806C0.697563 52.5871 0.698928 52.5921 0.701658 52.5954C0.704388 52.5987 0.70904 52.6003 0.715613 52.6003C0.718848 52.6003 0.723298 52.5997 0.72896 52.5985V52.6212C0.721578 52.6232 0.714399 52.6242 0.707422 52.6242C0.694883 52.6242 0.685429 52.6205 0.679058 52.6129C0.672688 52.6053 0.669503 52.5945 0.669503 52.5806V52.4788H0.639622V52.4571H0.669503V52.4174H0.697563ZM0.829219 52.6242C0.806973 52.6242 0.788873 52.617 0.774918 52.6024C0.760964 52.5877 0.753987 52.5682 0.753987 52.5437V52.5386C0.753987 52.5223 0.757071 52.5078 0.763239 52.495C0.769508 52.4822 0.778205 52.4722 0.789328 52.465C0.800552 52.4577 0.812686 52.4541 0.82573 52.4541C0.847066 52.4541 0.863649 52.4611 0.87548 52.4752C0.887311 52.4892 0.893226 52.5093 0.893226 52.5355V52.5472H0.782047C0.782452 52.5634 0.787154 52.5765 0.796153 52.5865C0.805254 52.5964 0.816781 52.6013 0.830735 52.6013C0.840645 52.6013 0.849038 52.5993 0.855914 52.5953C0.86279 52.5912 0.868806 52.5859 0.873963 52.5792L0.891103 52.5925C0.877351 52.6137 0.856723 52.6242 0.829219 52.6242ZM0.82573 52.4771C0.814405 52.4771 0.8049 52.4813 0.797215 52.4896C0.78953 52.4978 0.784777 52.5093 0.782957 52.5241H0.865166V52.522C0.864357 52.5078 0.860515 52.4967 0.853639 52.489C0.846763 52.4811 0.83746 52.4771 0.82573 52.4771ZM0.919012 52.5378C0.919012 52.5126 0.924978 52.4924 0.936909 52.4771C0.948841 52.4618 0.964464 52.4541 0.983778 52.4541C1.00299 52.4541 1.01821 52.4606 1.02943 52.4738V52.3882H1.05749V52.6212H1.03171L1.03034 52.6036C1.01912 52.6174 1.0035 52.6242 0.983474 52.6242C0.964464 52.6242 0.948943 52.6165 0.936909 52.6009C0.924978 52.5853 0.919012 52.565 0.919012 52.5399V52.5378ZM0.947072 52.541C0.947072 52.5596 0.950914 52.5741 0.958599 52.5847C0.966284 52.5952 0.976902 52.6004 0.990451 52.6004C1.00825 52.6004 1.02124 52.5924 1.02943 52.5765V52.5011C1.02104 52.4856 1.00815 52.4779 0.990755 52.4779C0.977003 52.4779 0.966284 52.4832 0.958599 52.4938C0.950914 52.5044 0.947072 52.5201 0.947072 52.541ZM1.31716 52.541C1.31716 52.5661 1.3114 52.5862 1.29987 52.6015C1.28835 52.6167 1.27287 52.6242 1.25346 52.6242C1.23273 52.6242 1.2167 52.6169 1.20538 52.6023L1.20401 52.6212H1.17823V52.3882H1.20629V52.4752C1.21761 52.4611 1.23324 52.4541 1.25316 52.4541C1.27308 52.4541 1.2887 52.4616 1.30002 52.4767C1.31145 52.4917 1.31716 52.5124 1.31716 52.5386V52.541ZM1.2891 52.5378C1.2891 52.5187 1.28541 52.5039 1.27803 52.4935C1.27065 52.4831 1.26003 52.4779 1.24618 52.4779C1.22767 52.4779 1.21438 52.4865 1.20629 52.5037V52.5747C1.21488 52.5918 1.22828 52.6004 1.24648 52.6004C1.25993 52.6004 1.2704 52.5952 1.27788 52.5848C1.28536 52.5744 1.2891 52.5587 1.2891 52.5378ZM1.40453 52.5801L1.44275 52.4571H1.47278L1.40681 52.6465C1.39659 52.6738 1.38036 52.6875 1.35812 52.6875L1.35281 52.687L1.34234 52.6851V52.6623L1.34993 52.6629C1.35943 52.6629 1.36681 52.661 1.37207 52.6572C1.37743 52.6533 1.38183 52.6463 1.38527 52.6361L1.39149 52.6194L1.33294 52.4571H1.36358L1.40453 52.5801ZM1.67634 52.6212C1.67472 52.618 1.6734 52.6122 1.67239 52.6039C1.65935 52.6175 1.64378 52.6242 1.62568 52.6242C1.6095 52.6242 1.5962 52.6197 1.58578 52.6106C1.57547 52.6014 1.57031 52.5898 1.57031 52.5757C1.57031 52.5586 1.57678 52.5454 1.58973 52.536C1.60277 52.5265 1.62107 52.5217 1.64463 52.5217H1.67194V52.5088C1.67194 52.499 1.669 52.4912 1.66314 52.4855C1.65727 52.4796 1.64863 52.4767 1.6372 52.4767C1.62719 52.4767 1.6188 52.4792 1.61202 52.4843C1.60525 52.4893 1.60186 52.4954 1.60186 52.5026H1.57365C1.57365 52.4944 1.57653 52.4865 1.5823 52.4789C1.58816 52.4713 1.59605 52.4652 1.60596 52.4607C1.61597 52.4563 1.62694 52.4541 1.63887 52.4541C1.65778 52.4541 1.67259 52.4588 1.68331 52.4683C1.69403 52.4777 1.69959 52.4907 1.7 52.5073V52.5828C1.7 52.5979 1.70192 52.6099 1.70576 52.6188V52.6212H1.67634ZM1.62977 52.5998C1.63857 52.5998 1.64691 52.5976 1.6548 52.593C1.66268 52.5885 1.6684 52.5825 1.67194 52.5753V52.5416H1.64994C1.61556 52.5416 1.59837 52.5516 1.59837 52.5718C1.59837 52.5806 1.60131 52.5874 1.60717 52.5924C1.61304 52.5974 1.62057 52.5998 1.62977 52.5998ZM1.77038 52.4571L1.77113 52.4753C1.78317 52.4611 1.7994 52.4541 1.81982 52.4541C1.84278 52.4541 1.8584 52.4629 1.86669 52.4805C1.87215 52.4726 1.87923 52.4662 1.88792 52.4613C1.89672 52.4565 1.90709 52.4541 1.91902 52.4541C1.95502 52.4541 1.97332 52.4731 1.97393 52.5112V52.6212H1.94587V52.5129C1.94587 52.5012 1.94319 52.4924 1.93783 52.4867C1.93247 52.4808 1.92347 52.4779 1.91083 52.4779C1.90041 52.4779 1.89177 52.481 1.88489 52.4873C1.87802 52.4935 1.87402 52.5018 1.87291 52.5123V52.6212H1.8447V52.5137C1.8447 52.4898 1.83302 52.4779 1.80966 52.4779C1.79126 52.4779 1.77867 52.4857 1.77189 52.5014V52.6212H1.74383V52.4571H1.77038ZM2.11772 52.6212C2.1161 52.618 2.11478 52.6122 2.11377 52.6039C2.10073 52.6175 2.08516 52.6242 2.06706 52.6242C2.05088 52.6242 2.03758 52.6197 2.02716 52.6106C2.01685 52.6014 2.01169 52.5898 2.01169 52.5757C2.01169 52.5586 2.01816 52.5454 2.03111 52.536C2.04415 52.5265 2.06245 52.5217 2.08602 52.5217H2.11332V52.5088C2.11332 52.499 2.11038 52.4912 2.10452 52.4855C2.09865 52.4796 2.09001 52.4767 2.07858 52.4767C2.06857 52.4767 2.06018 52.4792 2.0534 52.4843C2.04663 52.4893 2.04324 52.4954 2.04324 52.5026H2.01503C2.01503 52.4944 2.01791 52.4865 2.02368 52.4789C2.02954 52.4713 2.03743 52.4652 2.04734 52.4607C2.05735 52.4563 2.06832 52.4541 2.08025 52.4541C2.09916 52.4541 2.11397 52.4588 2.12469 52.4683C2.13541 52.4777 2.14097 52.4907 2.14138 52.5073V52.5828C2.14138 52.5979 2.1433 52.6099 2.14714 52.6188V52.6212H2.11772ZM2.07115 52.5998C2.07995 52.5998 2.08829 52.5976 2.09618 52.593C2.10406 52.5885 2.10978 52.5825 2.11332 52.5753V52.5416H2.09132C2.05694 52.5416 2.03975 52.5516 2.03975 52.5718C2.03975 52.5806 2.04269 52.5874 2.04855 52.5924C2.05442 52.5974 2.06195 52.5998 2.07115 52.5998ZM2.21191 52.4571L2.21282 52.4777C2.22536 52.462 2.24174 52.4541 2.26196 52.4541C2.29664 52.4541 2.31414 52.4736 2.31444 52.5128V52.6212H2.28638V52.5126C2.28628 52.5008 2.28355 52.492 2.27819 52.4864C2.27293 52.4807 2.26469 52.4779 2.25347 52.4779C2.24437 52.4779 2.23638 52.4803 2.2295 52.4852C2.22263 52.49 2.21727 52.4964 2.21342 52.5043V52.6212H2.18536V52.4571H2.21191ZM2.39483 52.4174V52.4571H2.42547V52.4788H2.39483V52.5806C2.39483 52.5871 2.39619 52.5921 2.39893 52.5954C2.40166 52.5987 2.40631 52.6003 2.41288 52.6003C2.41612 52.6003 2.42056 52.5997 2.42623 52.5985V52.6212C2.41885 52.6232 2.41167 52.6242 2.40469 52.6242C2.39215 52.6242 2.3827 52.6205 2.37633 52.6129C2.36995 52.6053 2.36677 52.5945 2.36677 52.5806V52.4788H2.33689V52.4571H2.36677V52.4174H2.39483ZM2.5597 52.6212C2.55808 52.618 2.55677 52.6122 2.55576 52.6039C2.54271 52.6175 2.52714 52.6242 2.50904 52.6242C2.49286 52.6242 2.47957 52.6197 2.46915 52.6106C2.45884 52.6014 2.45368 52.5898 2.45368 52.5757C2.45368 52.5586 2.46015 52.5454 2.4731 52.536C2.48614 52.5265 2.50444 52.5217 2.528 52.5217H2.5553V52.5088C2.5553 52.499 2.55237 52.4912 2.54651 52.4855C2.54064 52.4796 2.532 52.4767 2.52057 52.4767C2.51056 52.4767 2.50217 52.4792 2.49539 52.4843C2.48862 52.4893 2.48523 52.4954 2.48523 52.5026H2.45702C2.45702 52.4944 2.4599 52.4865 2.46566 52.4789C2.47153 52.4713 2.47941 52.4652 2.48932 52.4607C2.49934 52.4563 2.51031 52.4541 2.52224 52.4541C2.54115 52.4541 2.55596 52.4588 2.56668 52.4683C2.5774 52.4777 2.58296 52.4907 2.58336 52.5073V52.5828C2.58336 52.5979 2.58529 52.6099 2.58913 52.6188V52.6212H2.5597ZM2.51314 52.5998C2.52194 52.5998 2.53028 52.5976 2.53816 52.593C2.54605 52.5885 2.55176 52.5825 2.5553 52.5753V52.5416H2.53331C2.49893 52.5416 2.48174 52.5516 2.48174 52.5718C2.48174 52.5806 2.48467 52.5874 2.49054 52.5924C2.4964 52.5974 2.50394 52.5998 2.51314 52.5998ZM2.67316 52.5452L2.65556 52.5636V52.6212H2.6275V52.3882H2.65556V52.5291L2.67058 52.5111L2.72169 52.4571H2.75582L2.69197 52.5257L2.76325 52.6212H2.73034L2.67316 52.5452ZM2.88611 52.6212C2.88449 52.618 2.88318 52.6122 2.88217 52.6039C2.86912 52.6175 2.85355 52.6242 2.83545 52.6242C2.81927 52.6242 2.80598 52.6197 2.79556 52.6106C2.78525 52.6014 2.78009 52.5898 2.78009 52.5757C2.78009 52.5586 2.78656 52.5454 2.7995 52.536C2.81255 52.5265 2.83085 52.5217 2.85441 52.5217H2.88171V52.5088C2.88171 52.499 2.87878 52.4912 2.87292 52.4855C2.86705 52.4796 2.85841 52.4767 2.84698 52.4767C2.83697 52.4767 2.82858 52.4792 2.8218 52.4843C2.81503 52.4893 2.81164 52.4954 2.81164 52.5026H2.78343C2.78343 52.4944 2.78631 52.4865 2.79207 52.4789C2.79794 52.4713 2.80582 52.4652 2.81573 52.4607C2.82574 52.4563 2.83672 52.4541 2.84865 52.4541C2.86756 52.4541 2.88237 52.4588 2.89309 52.4683C2.90381 52.4777 2.90937 52.4907 2.90977 52.5073V52.5828C2.90977 52.5979 2.91169 52.6099 2.91554 52.6188V52.6212H2.88611ZM2.83955 52.5998C2.84834 52.5998 2.85669 52.5976 2.86457 52.593C2.87246 52.5885 2.87817 52.5825 2.88171 52.5753V52.5416H2.85972C2.82534 52.5416 2.80815 52.5516 2.80815 52.5718C2.80815 52.5806 2.81108 52.5874 2.81695 52.5924C2.82281 52.5974 2.83035 52.5998 2.83955 52.5998Z" fill="white"/>
<path d="M0.0350374 52.9319V52.7895H0.00910063V52.7678H0.0350374V52.7509C0.0350374 52.7333 0.0397394 52.7197 0.0491434 52.7101C0.0585474 52.7005 0.0718444 52.6957 0.0890345 52.6957C0.095506 52.6957 0.101927 52.6966 0.108297 52.6983L0.106781 52.7211C0.102028 52.7201 0.0969722 52.7197 0.091613 52.7197C0.0825123 52.7197 0.0754846 52.7224 0.0705299 52.7277C0.0655751 52.733 0.0630977 52.7406 0.0630977 52.7505V52.7678H0.0981351V52.7895H0.0630977V52.9319H0.0350374ZM0.208556 52.7929C0.204309 52.7922 0.199708 52.7919 0.194753 52.7919C0.17635 52.7919 0.163862 52.7997 0.157289 52.8154V52.9319H0.129229V52.7678H0.156531L0.156986 52.7867C0.166188 52.7721 0.179232 52.7647 0.196118 52.7647C0.201579 52.7647 0.205725 52.7654 0.208556 52.7669V52.7929ZM0.224027 52.8483C0.224027 52.8322 0.227162 52.8178 0.233431 52.8049C0.239801 52.7921 0.248599 52.7822 0.259823 52.7752C0.271148 52.7682 0.284041 52.7647 0.298501 52.7647C0.320848 52.7647 0.338897 52.7725 0.352649 52.7879C0.366502 52.8034 0.373429 52.824 0.373429 52.8497V52.8516C0.373429 52.8676 0.370345 52.882 0.364177 52.8947C0.35811 52.9074 0.349363 52.9172 0.337937 52.9243C0.326611 52.9314 0.313567 52.9349 0.298804 52.9349C0.276558 52.9349 0.258508 52.9272 0.244655 52.9117C0.230903 52.8962 0.224027 52.8758 0.224027 52.8503V52.8483ZM0.252239 52.8516C0.252239 52.8698 0.256435 52.8845 0.264828 52.8955C0.273322 52.9065 0.284647 52.912 0.298804 52.912C0.313062 52.912 0.324387 52.9065 0.33278 52.8953C0.341172 52.8841 0.345369 52.8684 0.345369 52.8483C0.345369 52.8303 0.341071 52.8158 0.332476 52.8046C0.323982 52.7934 0.312657 52.7878 0.298501 52.7878C0.284647 52.7878 0.273474 52.7933 0.26498 52.8043C0.256486 52.8153 0.252239 52.8311 0.252239 52.8516ZM0.43501 52.7678L0.435768 52.786C0.447801 52.7718 0.464031 52.7647 0.484457 52.7647C0.50741 52.7647 0.523033 52.7735 0.531325 52.7911C0.536785 52.7832 0.543864 52.7769 0.55256 52.772C0.561357 52.7672 0.571722 52.7647 0.583653 52.7647C0.619652 52.7647 0.637954 52.7838 0.638561 52.8219V52.9319H0.6105V52.8236C0.6105 52.8119 0.607821 52.8031 0.602461 52.7973C0.597102 52.7915 0.588103 52.7885 0.575463 52.7885C0.565048 52.7885 0.556402 52.7917 0.549526 52.798C0.54265 52.8041 0.538656 52.8125 0.537544 52.823V52.9319H0.509332V52.8243C0.509332 52.8005 0.497653 52.7885 0.474294 52.7885C0.455891 52.7885 0.443302 52.7964 0.436527 52.8121V52.9319H0.408466V52.7678H0.43501ZM0.796153 52.728V52.7678H0.826792V52.7895H0.796153V52.8912C0.796153 52.8978 0.797518 52.9028 0.800248 52.9061C0.802979 52.9093 0.80763 52.911 0.814203 52.911C0.817438 52.911 0.821888 52.9103 0.82755 52.9091V52.9319C0.820169 52.9339 0.812989 52.9349 0.806012 52.9349C0.793473 52.9349 0.784019 52.9311 0.777648 52.9235C0.771278 52.916 0.768093 52.9052 0.768093 52.8912V52.7895H0.738212V52.7678H0.768093V52.728H0.796153ZM0.887766 52.7876C0.900204 52.7724 0.916382 52.7647 0.936303 52.7647C0.970986 52.7647 0.98848 52.7843 0.988783 52.8234V52.9319H0.960723V52.8233C0.960622 52.8115 0.957891 52.8027 0.952532 52.797C0.947274 52.7914 0.939033 52.7885 0.927809 52.7885C0.918708 52.7885 0.91072 52.791 0.903844 52.7958C0.896968 52.8007 0.891609 52.8071 0.887766 52.8149V52.9319H0.859706V52.6989H0.887766V52.7876ZM1.0989 52.9349C1.07665 52.9349 1.05855 52.9276 1.0446 52.9131C1.03065 52.8984 1.02367 52.8788 1.02367 52.8544V52.8492C1.02367 52.8329 1.02675 52.8184 1.03292 52.8057C1.03919 52.7928 1.04789 52.7828 1.05901 52.7757C1.07023 52.7684 1.08237 52.7647 1.09541 52.7647C1.11675 52.7647 1.13333 52.7718 1.14516 52.7858C1.15699 52.7999 1.16291 52.82 1.16291 52.8462V52.8579H1.05173C1.05213 52.874 1.05684 52.8871 1.06583 52.8972C1.07494 52.9071 1.08646 52.912 1.10042 52.912C1.11033 52.912 1.11872 52.91 1.1256 52.9059C1.13247 52.9019 1.13849 52.8965 1.14365 52.8899L1.16078 52.9032C1.14703 52.9244 1.1264 52.9349 1.0989 52.9349ZM1.09541 52.7878C1.08409 52.7878 1.07458 52.7919 1.0669 52.8002C1.05921 52.8084 1.05446 52.8199 1.05264 52.8348H1.13485V52.8327C1.13404 52.8184 1.1302 52.8074 1.12332 52.7996C1.11644 52.7917 1.10714 52.7878 1.09541 52.7878ZM1.4467 52.9319H1.41742L1.30624 52.7617V52.9319H1.27697V52.711H1.30624L1.41773 52.882V52.711H1.4467V52.9319ZM1.48659 52.8483C1.48659 52.8322 1.48972 52.8178 1.49599 52.8049C1.50236 52.7921 1.51116 52.7822 1.52238 52.7752C1.53371 52.7682 1.5466 52.7647 1.56106 52.7647C1.58341 52.7647 1.60146 52.7725 1.61521 52.7879C1.62906 52.8034 1.63599 52.824 1.63599 52.8497V52.8516C1.63599 52.8676 1.63291 52.882 1.62674 52.8947C1.62067 52.9074 1.61192 52.9172 1.6005 52.9243C1.58917 52.9314 1.57613 52.9349 1.56136 52.9349C1.53912 52.9349 1.52107 52.9272 1.50722 52.9117C1.49346 52.8962 1.48659 52.8758 1.48659 52.8503V52.8483ZM1.5148 52.8516C1.5148 52.8698 1.519 52.8845 1.52739 52.8955C1.53588 52.9065 1.54721 52.912 1.56136 52.912C1.57562 52.912 1.58695 52.9065 1.59534 52.8953C1.60373 52.8841 1.60793 52.8684 1.60793 52.8483C1.60793 52.8303 1.60363 52.8158 1.59504 52.8046C1.58654 52.7934 1.57522 52.7878 1.56106 52.7878C1.54721 52.7878 1.53603 52.7933 1.52754 52.8043C1.51905 52.8153 1.5148 52.8311 1.5148 52.8516ZM1.7725 52.9157C1.76158 52.9285 1.74555 52.9349 1.72442 52.9349C1.70692 52.9349 1.69358 52.9299 1.68437 52.9198C1.67527 52.9095 1.67067 52.8945 1.67057 52.8746V52.7678H1.69863V52.8738C1.69863 52.8987 1.70874 52.9111 1.72897 52.9111C1.7504 52.9111 1.76466 52.9031 1.77174 52.8871V52.7678H1.7998V52.9319H1.77311L1.7725 52.9157ZM1.86912 52.7678L1.87003 52.7884C1.88257 52.7726 1.89895 52.7647 1.91917 52.7647C1.95385 52.7647 1.97135 52.7843 1.97165 52.8234V52.9319H1.94359V52.8233C1.94349 52.8115 1.94076 52.8027 1.9354 52.797C1.93014 52.7914 1.9219 52.7885 1.91068 52.7885C1.90158 52.7885 1.89359 52.791 1.88671 52.7958C1.87984 52.8007 1.87448 52.8071 1.87063 52.8149V52.9319H1.84257V52.7678H1.86912ZM2.12454 52.8454V52.9319H2.09542V52.711H2.17687C2.20104 52.711 2.21995 52.7172 2.2336 52.7295C2.24735 52.7419 2.25422 52.7582 2.25422 52.7785C2.25422 52.8 2.2475 52.8165 2.23405 52.8281C2.2207 52.8397 2.20154 52.8454 2.17657 52.8454H2.12454ZM2.12454 52.8216H2.17687C2.19244 52.8216 2.20437 52.818 2.21267 52.8107C2.22096 52.8033 2.2251 52.7927 2.2251 52.7788C2.2251 52.7657 2.22096 52.7552 2.21267 52.7473C2.20437 52.7394 2.193 52.7353 2.17854 52.735H2.12454V52.8216ZM2.36631 52.7929C2.36207 52.7922 2.35747 52.7919 2.35251 52.7919C2.33411 52.7919 2.32162 52.7997 2.31505 52.8154V52.9319H2.28699V52.7678H2.31429L2.31474 52.7867C2.32395 52.7721 2.33699 52.7647 2.35388 52.7647C2.35934 52.7647 2.36348 52.7654 2.36631 52.7669V52.7929ZM2.38179 52.8483C2.38179 52.8322 2.38492 52.8178 2.39119 52.8049C2.39756 52.7921 2.40636 52.7822 2.41758 52.7752C2.42891 52.7682 2.4418 52.7647 2.45626 52.7647C2.47861 52.7647 2.49666 52.7725 2.51041 52.7879C2.52426 52.8034 2.53119 52.824 2.53119 52.8497V52.8516C2.53119 52.8676 2.5281 52.882 2.52194 52.8947C2.51587 52.9074 2.50712 52.9172 2.49569 52.9243C2.48437 52.9314 2.47133 52.9349 2.45656 52.9349C2.43432 52.9349 2.41627 52.9272 2.40241 52.9117C2.38866 52.8962 2.38179 52.8758 2.38179 52.8503V52.8483ZM2.41 52.8516C2.41 52.8698 2.41419 52.8845 2.42259 52.8955C2.43108 52.9065 2.44241 52.912 2.45656 52.912C2.47082 52.912 2.48215 52.9065 2.49054 52.8953C2.49893 52.8841 2.50313 52.8684 2.50313 52.8483C2.50313 52.8303 2.49883 52.8158 2.49023 52.8046C2.48174 52.7934 2.47042 52.7878 2.45626 52.7878C2.44241 52.7878 2.43123 52.7933 2.42274 52.8043C2.41424 52.8153 2.41 52.8311 2.41 52.8516ZM2.59535 52.7678V52.9508C2.59535 52.9824 2.58104 52.9982 2.55242 52.9982C2.54625 52.9982 2.54054 52.9973 2.53528 52.9954V52.973C2.53852 52.9738 2.54277 52.9742 2.54802 52.9742C2.55429 52.9742 2.55905 52.9725 2.56228 52.969C2.56562 52.9657 2.56729 52.9598 2.56729 52.9515V52.7678H2.59535ZM2.5644 52.7242C2.5644 52.7198 2.56577 52.716 2.5685 52.7129C2.57133 52.7096 2.57543 52.708 2.58079 52.708C2.58625 52.708 2.59039 52.7096 2.59322 52.7127C2.59605 52.7158 2.59747 52.7197 2.59747 52.7242C2.59747 52.7288 2.59605 52.7326 2.59322 52.7356C2.59039 52.7386 2.58625 52.7402 2.58079 52.7402C2.57533 52.7402 2.57123 52.7386 2.5685 52.7356C2.56577 52.7326 2.5644 52.7288 2.5644 52.7242ZM2.7088 52.9349C2.68656 52.9349 2.66846 52.9276 2.6545 52.9131C2.64055 52.8984 2.63357 52.8788 2.63357 52.8544V52.8492C2.63357 52.8329 2.63665 52.8184 2.64282 52.8057C2.64909 52.7928 2.65779 52.7828 2.66891 52.7757C2.68013 52.7684 2.69227 52.7647 2.70531 52.7647C2.72665 52.7647 2.74323 52.7718 2.75506 52.7858C2.76689 52.7999 2.77281 52.82 2.77281 52.8462V52.8579H2.66163C2.66203 52.874 2.66674 52.8871 2.67574 52.8972C2.68484 52.9071 2.69636 52.912 2.71032 52.912C2.72023 52.912 2.72862 52.91 2.7355 52.9059C2.74237 52.9019 2.74839 52.8965 2.75355 52.8899L2.77069 52.9032C2.75693 52.9244 2.73631 52.9349 2.7088 52.9349ZM2.70531 52.7878C2.69399 52.7878 2.68448 52.7919 2.6768 52.8002C2.66911 52.8084 2.66436 52.8199 2.66254 52.8348H2.74475V52.8327C2.74394 52.8184 2.7401 52.8074 2.73322 52.7996C2.72635 52.7917 2.71704 52.7878 2.70531 52.7878ZM2.87125 52.912C2.88126 52.912 2.89 52.909 2.89749 52.9029C2.90497 52.8968 2.90912 52.8893 2.90993 52.8802H2.93647C2.93596 52.8896 2.93273 52.8985 2.92676 52.907C2.9208 52.9155 2.91281 52.9223 2.9028 52.9273C2.89289 52.9324 2.88237 52.9349 2.87125 52.9349C2.8489 52.9349 2.8311 52.9275 2.81786 52.9126C2.80471 52.8977 2.79814 52.8772 2.79814 52.8513V52.8466C2.79814 52.8307 2.80107 52.8165 2.80694 52.804C2.8128 52.7916 2.82119 52.7819 2.83211 52.7751C2.84314 52.7682 2.85613 52.7647 2.8711 52.7647C2.8895 52.7647 2.90477 52.7702 2.9169 52.7813C2.92914 52.7923 2.93566 52.8066 2.93647 52.8242H2.90993C2.90912 52.8136 2.90507 52.8049 2.89779 52.7981C2.89061 52.7912 2.88171 52.7878 2.8711 52.7878C2.85684 52.7878 2.84577 52.7929 2.83788 52.8033C2.83009 52.8135 2.8262 52.8283 2.8262 52.8477V52.853C2.8262 52.8719 2.83009 52.8865 2.83788 52.8967C2.84566 52.9069 2.85679 52.912 2.87125 52.912ZM3.00609 52.728V52.7678H3.03673V52.7895H3.00609V52.8912C3.00609 52.8978 3.00745 52.9028 3.01018 52.9061C3.01291 52.9093 3.01757 52.911 3.02414 52.911C3.02737 52.911 3.03182 52.9103 3.03749 52.9091V52.9319C3.0301 52.9339 3.02292 52.9349 3.01595 52.9349C3.00341 52.9349 2.99395 52.9311 2.98758 52.9235C2.98121 52.916 2.97803 52.9052 2.97803 52.8912V52.7895H2.94815V52.7678H2.97803V52.728H3.00609Z" fill="white"/>
</svg>
