<svg width="33" height="35" viewBox="0 0 33 35" fill="none" xmlns="http://www.w3.org/2000/svg">
<path d="M28.875 4.66667H23.2155C22.5741 2.00982 19.818 0 16.5 0C13.1802 0 10.4028 2.00748 9.76401 4.66667H4.125C1.85034 4.66667 0 6.23665 0 8.16667C0 10.0967 1.85034 11.6667 4.125 11.6667H4.19994L5.5 31.5C5.5 33.43 7.35034 35 9.625 35H23.375C25.6497 35 27.5 33.43 27.4972 31.565L28.8002 11.6667H28.875C31.1497 11.6667 33 10.0967 33 8.16667C33 6.23665 31.1497 4.66667 28.875 4.66667ZM16.5 2.33333C18.2926 2.33333 19.822 3.30855 20.39 4.66667H12.61C13.178 3.30855 14.7074 2.33333 16.5 2.33333ZM24.75 31.5C24.75 32.1438 24.1337 32.6667 23.375 32.6667H9.625C8.86627 32.6667 8.25 32.1438 8.24725 31.435L6.95282 11.6667H26.047L24.75 31.5ZM28.875 9.33333H27.5H5.5H4.125C3.36627 9.33333 2.75 8.81043 2.75 8.16667C2.75 7.5229 3.36627 7 4.125 7H11H22H22.0268H28.875C29.6337 7 30.25 7.5229 30.25 8.16667C30.25 8.81043 29.6337 9.33333 28.875 9.33333Z" fill="#333232"/>
</svg>
